function data()
return { 
		subMeshes = {
			{ 
				indices = { 
					normal = { 
						count = 138264,
						offset = 584584,
					},
					position = { 
						count = 138264,
						offset = 308056,
					},
					tangent = { 
						count = 138264,
						offset = 722848,
					},
					uv0 = { 
						count = 138264,
						offset = 446320,
					},
				},
			},
		},
		vertexAttr = { 
			normal = { 
				count = 71976,
				numComp = 3,
				offset = 100784,
			},
			position = { 
				count = 82992,
				numComp = 3,
				offset = 0,
			},
			tangent = { 
				count = 135296,
				numComp = 4,
				offset = 172760,
			},
			uv0 = { 
				count = 17792,
				numComp = 2,
				offset = 82992,
			},
		},
	}
end