function data()
return { 
		subMeshes = {
			{ 
				indices = { 
					normal = { 
						count = 405108,
						offset = 1712488,
					},
					position = { 
						count = 405108,
						offset = 902272,
					},
					tangent = { 
						count = 405108,
						offset = 2117596,
					},
					uv0 = { 
						count = 405108,
						offset = 1307380,
					},
				},
			},
		},
		vertexAttr = { 
			normal = { 
				count = 150552,
				numComp = 3,
				offset = 408424,
			},
			position = { 
				count = 222504,
				numComp = 3,
				offset = 0,
			},
			tangent = { 
				count = 343296,
				numComp = 4,
				offset = 558976,
			},
			uv0 = { 
				count = 185920,
				numComp = 2,
				offset = 222504,
			},
		},
	}
end