function data()
return { 
		subMeshes = {
			{ 
				indices = { 
					normal = { 
						count = 406356,
						offset = 1719904,
					},
					position = { 
						count = 406356,
						offset = 907192,
					},
					tangent = { 
						count = 406356,
						offset = 2126260,
					},
					uv0 = { 
						count = 406356,
						offset = 1313548,
					},
				},
			},
		},
		vertexAttr = { 
			normal = { 
				count = 150960,
				numComp = 3,
				offset = 411976,
			},
			position = { 
				count = 223368,
				numComp = 3,
				offset = 0,
			},
			tangent = { 
				count = 344256,
				numComp = 4,
				offset = 562936,
			},
			uv0 = { 
				count = 188608,
				numComp = 2,
				offset = 223368,
			},
		},
	}
end