function data()
return { 
		subMeshes = {
			{ 
				indices = { 
					normal = { 
						count = 14856,
						offset = 59124,
					},
					position = { 
						count = 14856,
						offset = 29412,
					},
					tangent = { 
						count = 14856,
						offset = 73980,
					},
					uv0 = { 
						count = 14856,
						offset = 44268,
					},
				},
			},
		},
		vertexAttr = { 
			normal = { 
				count = 8412,
				numComp = 3,
				offset = 11496,
			},
			position = { 
				count = 8880,
				numComp = 3,
				offset = 0,
			},
			tangent = { 
				count = 9504,
				numComp = 4,
				offset = 19908,
			},
			uv0 = { 
				count = 2616,
				numComp = 2,
				offset = 8880,
			},
		},
	}
end