function data()
return { 
		subMeshes = {
			{ 
				indices = { 
					normal = { 
						count = 406356,
						offset = 1717776,
					},
					position = { 
						count = 406356,
						offset = 905064,
					},
					tangent = { 
						count = 406356,
						offset = 2124132,
					},
					uv0 = { 
						count = 406356,
						offset = 1311420,
					},
				},
			},
		},
		vertexAttr = { 
			normal = { 
				count = 150960,
				numComp = 3,
				offset = 410280,
			},
			position = { 
				count = 223368,
				numComp = 3,
				offset = 0,
			},
			tangent = { 
				count = 343824,
				numComp = 4,
				offset = 561240,
			},
			uv0 = { 
				count = 186912,
				numComp = 2,
				offset = 223368,
			},
		},
	}
end